<svg xmlns:rdf="http://www.w3.org/1999/02/22-rdf-syntax-ns#" xmlns="http://www.w3.org/2000/svg" height="134" width="128.96" version="1.1" xmlns:cc="http://creativecommons.org/ns#" xmlns:xlink="http://www.w3.org/1999/xlink" viewBox="-58 192 128.96239 134" xmlns:dc="http://purl.org/dc/elements/1.1/"><title>pdf</title><defs><radialGradient id="radialGradient34298" gradientUnits="userSpaceOnUse" cy="665.03" cx="-29.672" gradientTransform="matrix(1.5529069,0,0,0.56540999,466.04878,204.65254)" r="44.674"><stop stop-color="#eeeeec" offset="0"/><stop stop-color="#eeeeec" stop-opacity="0" offset="1"/></radialGradient><radialGradient id="radialGradient34301" gradientUnits="userSpaceOnUse" cy="681.3" cx="-160.7" gradientTransform="matrix(1.5529069,0,0,0.5207254,466.04878,251.15886)" r="55.676"><stop stop-color="#eeeeec" offset="0"/><stop stop-color="#eeeeec" stop-opacity="0" offset="1"/></radialGradient><radialGradient id="radialGradient34304" gradientUnits="userSpaceOnUse" cy="638.27" cx="-83.953" gradientTransform="matrix(1.1442206,-0.91285971,0.56930173,0.71358914,68.368144,7.0144545)" r="81.076"><stop stop-color="#eeeeec" stop-opacity="0" offset="0"/><stop stop-color="#eeeeec" offset="0.56173"/><stop stop-color="#eeeeec" stop-opacity="0" offset="1"/></radialGradient><linearGradient id="linearGradient34307" y2="622.94" gradientUnits="userSpaceOnUse" x2="-159.88" gradientTransform="matrix(1.5529069,0,0,1.5529069,466.04878,-452.06239)" y1="622.94" x1="-312.79"><stop stop-color="#eeeeec" stop-opacity="0" offset="0"/><stop stop-color="#eeeeec" stop-opacity="0.8277778" offset="0.54796"/><stop stop-color="#eeeeec" stop-opacity="0" offset="1"/></linearGradient><linearGradient id="linearGradient34317" y2="48.969" gradientUnits="userSpaceOnUse" x2="37.949" gradientTransform="matrix(16.497606,0,0,-13.88636,-28.442096,966.48281)" y1="48.969" x1="32.133"><stop stop-color="#FFF" offset="0"/><stop stop-color="#FFF" stop-opacity="0" offset="1"/></linearGradient><linearGradient id="linearGradient34320" y2="37.771" gradientUnits="userSpaceOnUse" x2="33.665" gradientTransform="matrix(14.261481,0,0,-16.063672,59.434815,901.69148)" y1="40.458" x1="35.997"><stop stop-color="#888a85" offset="0"/><stop stop-color="#babdb6" offset="1"/></linearGradient><linearGradient id="linearGradient34327" y2="39.498" gradientUnits="userSpaceOnUse" x2="35.785" gradientTransform="matrix(17.473978,0,0,-16.809389,-52.033161,940.89163)" y1="18.992" x1="22.308"><stop stop-color="#FFF" offset="0"/><stop stop-color="#eeeeec" offset="0.59929"/><stop stop-color="#FFF" offset="0.82759"/><stop stop-color="#d3d7cf" offset="1"/></linearGradient></defs><g transform="translate(6.8798432,-639.85571)"><g transform="matrix(0.15172045,0,0,0.15764706,-55.036244,813.5914)"><rect height="850" width="850" y="115.86" x="-64.88" fill="none"/><path stroke-linejoin="miter" d="m122.85,831.03,488.84,0c5.1696,0,9.3315-4.3005,9.3315-9.6423v-461.62c0-42.079-112.64-141.08-151.74-141.08h-346.43c-5.1696,0-9.3315,4.3004-9.3315,9.6423v593.06c0,5.3418,4.1618,9.6423,9.3315,9.6423z" fill-rule="evenodd" stroke-dashoffset="0" stroke="#888a85" stroke-linecap="butt" stroke-miterlimit="4" stroke-width="16.67949677" fill="url(#linearGradient34327)"/><rect opacity="0.17045" fill-rule="evenodd" height="34.266" width="359.79" y="445.31" x="156.06" fill="#000"/><rect opacity="0.17045" fill-rule="evenodd" height="34.266" width="342.53" y="511.01" x="156.06" fill="#000"/><rect opacity="0.17045" fill-rule="evenodd" height="34.266" width="307.99" y="579.66" x="156.53" fill="#000"/><rect opacity="0.17045" fill-rule="evenodd" height="34.266" width="359.79" y="650.91" x="156.89" fill="#000"/><path stroke-linejoin="miter" d="m488.12,218.93c28.957-5.2994,136.75,72.767,132.41,136.51-22.294-38.924-67.864-20.67-126.46-23.224,0,0,5.6386-105.25-5.9489-113.28z" fill-rule="evenodd" stroke-dashoffset="0" stroke="#888a85" stroke-linecap="butt" stroke-miterlimit="4" stroke-dasharray="none" stroke-width="15.13578224" fill="url(#linearGradient34320)"/><path opacity="0.36931817" stroke-linejoin="miter" d="m508.81,254.13c19.535,10.985,63.153,34.48,81.684,64.696-22.763-10.924-42.04-3.3653-81.324-3.0586,0,0,2.315-49.188-0.36076-61.637z" stroke-dashoffset="0" stroke="url(#linearGradient34317)" stroke-linecap="butt" stroke-miterlimit="4" stroke-dasharray="none" stroke-width="15.13577557" fill="none"/><path stroke-linejoin="miter" d="m132.91,638.15c1.3139,4.8168,65.471-21.411,137.11-39.093,13.856-3.4202,26.954-5.5346,35.627-4.8808,5.2014-1.7221,21.336,7.9741,33.791,13.312,17.316,10.389,70.703,24.016,79.37,24.539,21.234,1.2814,69.095,5.9685,73.996-22.217,4.445-25.566-22.6-43.132-53.608-51.806-23.476-6.5672-47.641-7.2976-62.468-6.9822-34.412,0.73218-65.467,2.411-65.467,2.411s-84.47-67.99-94.668-103.17c-0.41638-2.2003,13.077-46.464,14.462-51.268,9.1262-31.661,15.188-70.824,11.381-94.537-2.8032-17.459-16.693-60.562-36.306-64.609-34.826-7.187-48.089,30.025-49.359,56.525-1.2804,26.714-4.217,59.598,6.7888,88.459,7.7976,20.448,11.332,40.297,9.6806,50.661-2.7571,17.3-12.293,39.693-23.496,67.449-22.066,54.669-61.85,119.51-61.85,119.51s-69.986,25.982-105.04,67.789c-39.329,46.904-17.143,73.971-17.143,73.971s15.809,32.324,62.967,5.6062c23.689-13.421,57.662-50.764,75.834-84.42,14.148-26.203,29.492-44.814,28.402-47.247zm-74.684,36.61s-30.433,23.068-41.771,32.786c-14.969,12.82-17.949,24.16-11.84,33.07,4.4091,6.43,17.814-10.52,30.196-29.02,11.47-17.15,23.064-36.49,23.416-36.84zm100.31-87.861c5.2781-12.536,8.6215-18.123,20.32-44.783,6.9803-16.277,12.024-28.923,18.878-40.364,10.12,7.6852,12.695,10.19,27.725,27.431,12.896,11.373,24.555,21.231,33.386,29.894-3.977,5.2664-25.633,10.533-47.11,15.799-41.355,8.7324-36.437,8.2099-53.198,12.023zm35.662-236.71s-1.946-18.528-3.3718-36.78c-0.9966-12.758-3.3397-24.081,3.8896-31.009,17.572-16.84,1.6788,67.789-0.51774,67.789zm194.97,239.64s61.665-2.6254,58.004,7.6251c-3.6609,10.25-58.004-7.6251-58.004-7.6251z" fill-rule="evenodd" stroke="#a40000" stroke-linecap="butt" stroke-miterlimit="4" stroke-dasharray="none" stroke-width="10.87034798" fill="#C00"/><path stroke-linejoin="miter" d="m257.38,557.61,54.913,37.341-54.913-37.341z" stroke="#a40000" stroke-linecap="butt" stroke-miterlimit="4" stroke-dasharray="none" stroke-width="10.87034798" fill="none"/><path stroke-linejoin="miter" d="m312.2,553.86,77.061,35.327-77.061-35.327z" stroke="#a40000" stroke-linecap="butt" stroke-miterlimit="4" stroke-dasharray="none" stroke-width="10.68793488" fill="none"/><path stroke-linejoin="miter" d="M88.977,619.85,53.101,683.55,88.977,619.85z" stroke="#a40000" stroke-linecap="butt" stroke-miterlimit="4" stroke-dasharray="none" stroke-width="10.87034798" fill="none"/><path stroke-linejoin="miter" d="m156.61,588.43-26.902,54.052,26.902-54.052z" stroke="#a40000" stroke-linecap="butt" stroke-miterlimit="4" stroke-dasharray="none" stroke-width="10.87034798" fill="none"/><path stroke-linejoin="miter" d="M196.59,342.36,167.33,463.88,196.59,342.36z" stroke="#a40000" stroke-linecap="butt" stroke-miterlimit="4" stroke-dasharray="none" stroke-width="10.89639568" fill="none"/><path stroke-linejoin="miter" d="m216.17,448.2-20.469,57.749,20.469-57.749z" stroke="#a40000" stroke-linecap="butt" stroke-miterlimit="4" stroke-dasharray="none" stroke-width="11.37281227" fill="none"/><path opacity="0.90909095" stroke-linejoin="miter" d="m186.36,353.33s-20.501-81.272,9.5183-82.004c30.019-0.73218,11.715,62.967,11.715,62.967l-29.036,122.43s-10.931,21.978-19.414,48.315c-5.1677,16.044-74.556,144.09-74.556,144.09l-33.69,57.11s-19.345,32.224-39.966,47.717c-9.8436,7.4-26.255-24.47-13.18-40.34,21.395-25.98,51.755-41.86,51.755-41.86" stroke="url(#linearGradient34307)" stroke-linecap="round" stroke-miterlimit="4" stroke-dasharray="none" stroke-width="9.31744099" fill="none"/><path opacity="0.48148151" stroke-linejoin="miter" d="m214.43,469.76s37.506,52.911,81.212,83.294c31.231,21.711,54.313,31.6,94.815,47.173,44.093,16.954,65.939,3.7538,66.446-4.2498,0.97821-15.433-45.473-19.446-67.482-16.459" stroke="url(#radialGradient34304)" stroke-linecap="butt" stroke-miterlimit="4" stroke-dasharray="none" stroke-width="9.31744099" fill="none"/><path opacity="0.83501683" stroke-linejoin="miter" d="m135.38,629.58s82.373-32.669,162.25-47.314" stroke="url(#radialGradient34301)" stroke-linecap="butt" stroke-miterlimit="4" stroke-dasharray="none" stroke-width="10.66978931" fill="none"/><path opacity="0.88552186" stroke-linejoin="miter" d="m355.26,560.88s55.915-4.1418,83.872,6.2127c27.957,10.355,45.56,24.851,45.56,34.17" stroke="url(#radialGradient34298)" stroke-linecap="butt" stroke-miterlimit="4" stroke-dasharray="none" stroke-width="9.31744099" fill="none"/></g></g></svg>